<svg id="bold" enable-background="new 0 0 24 24" height="512" viewBox="0 0 24 24" width="512" xmlns="http://www.w3.org/2000/svg"><path d="m6.75 20c-.197 0-.388-.078-.53-.22-.177-.177-.254-.432-.205-.677l.67-3.351c.029-.146.1-.279.205-.383l6.872-6.872c.662-.661 1.739-.662 2.4 0l1.341 1.341c.661.662.661 1.739 0 2.4l-6.873 6.873c-.104.105-.238.176-.383.205l-3.351.67c-.048.009-.097.014-.146.014zm3.351-1.42h.01z"/><path d="m21 1h-18c-1.654 0-3 1.346-3 3v16c0 1.654 1.346 3 3 3h18c1.654 0 3-1.346 3-3v-16c0-1.654-1.346-3-3-3zm0 20h-18c-.551 0-1-.448-1-1v-14h20v14c0 .552-.449 1-1 1z"/></svg>